<svg version="1.2" xmlns="http://www.w3.org/2000/svg" viewBox="0 0 1579 673" width="1579" height="673">
	<title>edf-colour-svg</title>
	<style>
		.s0 { fill: #ffffff } 
	</style>
	<path id="Layer" fill-rule="evenodd" class="s0" d="m411 108.6q2.8 2.6 5.1 5.7 2.3 3 3.9 6.5 1.7 3.4 2.7 7.1c-15.7 21.1-10.4 121.6-59.8 116.9q-5.7 1.8-11.7 2.5-5.9 0.8-11.9 0.5-5.9-0.3-11.8-1.7-5.8-1.4-11.3-3.7l-7.8-12c-12.9-8.3-14.4-14.7-26.3-23.1l-34.3-50.3c0.7-5.2 2.4-10.2 2.4-15.5-14.5-22.9 4.5-62.8 18.7-78.8 16.8-19.2 34.3-43.2 64.7-47.3l23.5 6.7q9.1-1.9 18.1-4 9-2.1 18-4.4 9-2.4 17.9-4.9 8.9-2.6 17.8-5.4c6.7-2.4 23.3-5.8 26.6 3 5.6 14.4-29.6 9.1-34.5 31.5-16 14.4-13.4 44.9-16 66q3.2 2 6 4.7zm-410.6 193.8c13.4-17 11.3-46.6 41-47.4 3.3 6.6-0.8 2.8 7.3 5.5l2.7-4.9q1.7-2.1 2.9-4.4 1.2-2.4 2.1-4.9 0.8-2.5 1.1-5.2 0.4-2.6 0.3-5.3h12.7c1.3-26.6-0.2-36.1 9.1-47.1 0 0.9 3.2-2.8 3.2-1.9q1.3 1.7 2.4 3.4 1.2 1.8 2.1 3.7 1 1.9 1.7 3.8 0.7 2 1.2 4c9.5 25.9 45.5 86.7 76.5 90.8 32.4 21.6 106.8-30.6 111.9 31.1 16.4 29.3-35.1 65.5-50 72.9q-4.6 1.5-9.2 2.7-4.6 1.3-9.3 2.4-4.6 1.1-9.4 2-4.7 0.9-9.4 1.7c-80.6 20.9-190.4-47.6-190.9-102.9zm556-65.4c89.7-13.8 184.4 7.6 193.2 101-12.9 14.3 1.5 27.2-25.7 31.5q-1.7 0.8-3.4 1.3-1.8 0.5-3.6 0.9-1.8 0.3-3.6 0.3-1.8 0.1-3.6-0.1-0.1 0.9-0.2 1.8 0 0.9 0 1.8 0 1 0 1.9 0.1 0.9 0.2 1.8-0.7 1-1.5 1.9-0.9 0.8-1.8 1.6-1 0.7-2.1 1.2-1.1 0.5-2.3 0.9-4 1.2-8.2 2.1-4.1 1-8.4 1.6-4.2 0.7-8.4 1-4.3 0.4-8.5 0.5c-28.5-4.5-15.1-6.2-33.8-1.3q-0.4-1.6-0.8-3.2-0.4-1.5-0.7-3.1-0.4-1.6-0.7-3.2-0.3-1.6-0.6-3.2c-19.9-49.4-121.9-45.7-180.8-41.4q-2.7-2-4.8-4.6-2.1-2.5-3.7-5.5-1.6-2.9-2.6-6.1-0.9-3.2-1.3-6.5-0.5-2.6-0.5-5.3-0.1-2.7 0.3-5.3 0.4-2.7 1.3-5.2 0.8-2.5 2.1-4.9 1.9-2.7 4-5.3 2.1-2.5 4.5-4.9 2.3-2.3 4.9-4.4 2.5-2.2 5.3-4 10.6-7.1 22.1-12.9 11.4-5.8 23.4-10.3 12.1-4.4 24.5-7.4 12.5-3 25.3-4.5zm119.5 389.2c-4.7 5-4.5 15.1-10.1 20.1-5.6 5.1-11.4 2.1-18.6 5.1-26.7 11.3-23.9 23.1-62.5 20.3-4.3-8.2-58.2-50.7-71.2-50.7-4.3 0.9-15.1-5.4-15.1-7.1 0-1.7-2.3-6.1-2.3-7.8 4.1-4.5 7.3-6.4 7.3-30.4-3.9-5.8 0.4-18.8-3.9-24.4-3.9 0-8-20.5-14.2-27.8-5.4-1.5-17-21.4-21.3-25.2-13.7-11.3-32.4-17.8-40.6-34.1 1.3 0 0-2.4 0-2.4 8.8-16.2 13.8-13.6 27.4-24 95.9 3.3 225.3 93.3 225.1 188.4zm-349.1-160.7c16.6 20.2 23.1 98.8 4.5 132q-3.5 5.7-7.4 11.2-3.9 5.5-8.1 10.7-4.3 5.2-8.9 10.1-4.6 4.8-9.6 9.4c-8.3 6.9-17.9 5.9-27 12.1-3.6 3-7.4 5.6-11.6 7.7-4.1 2.2-8.5 3.8-13 5-4.5 1.2-9.1 1.9-13.7 2.1-4.7 0.2-9.3-0.2-13.9-1l-25.2 1.7c-3.7-1-16.6-7.7-20.9-8.6l-22.7 1.7c-0.9-3.4-2.1-6.7-3.2-9.9l-18.6 1.1c-5.1-2.4-4.7-12.1-11.4-18.6-6.7-6.6-10.3-2.3-13.8-14.2 5.4-10.8-9.1-52.4-11.9-71-3-9.5-4.5-11.2-1.9-11.2 38.6 33.6 116.2 16 153.5-18.6q4.5-5 8.8-10.2 4.3-5.2 8.4-10.6 4-5.5 7.8-11.1 3.7-5.6 7.2-11.4c4.1-6.5 19-8.7 24.5-14.3 14.1-1.7 21.8-1.5 28.1 5.9z"/>
	<path id="Layer" fill-rule="evenodd" class="s0" d="m1226.6 243.3c79.6 0 133.3 50.3 133.3 140.2 0 113.1-74.6 146.5-151.4 146.5h-103.7v-286.5zm-23.3 232.4c44 0 79.6-14.5 79.6-92.1 0-65.9-35.6-87.9-79.6-87.9h-23.1v180zm269.4 9.9c0 20.9 1.2 43.8 1.2 43.8h-77.1v-285.9h181.9v55.9c0 0-40.7-0.9-54.5-0.9h-51.5v56.6h94.4v52.8h-94.4zm-499.6-15c7.2-1 14.2-2.7 21.2-4.9 6.9-2.3 13.6-5.1 20.1-8.4 6.4-3.3 12.6-7.1 18.5-11.4 2.9 4.6 26.6 46.9 29.6 51.6-9.5 6.6-19.4 12.4-29.8 17.3-10.5 5-21.3 9.1-32.3 12.2-11.1 3.2-22.5 5.4-33.9 6.7-11.5 1.3-23 1.7-34.5 1.1-80.6 0-126.8-54.6-126.8-145.8 0-137 91.2-151.7 130.5-151.7 85.4 0 126.8 47.5 126.8 145.2v21.6c-30.4 1-46.4 1-85.2 1-22.8 0-90.1 1.6-90.1 1.6v3.2c-0.3 8.4 1.2 16.8 4.4 24.6 3.1 7.8 7.9 14.8 13.9 20.7 6.1 5.9 13.3 10.4 21.2 13.3 7.8 2.9 16.3 4.2 24.7 3.7 7.2 0 14.5-0.5 21.7-1.6zm-86.1-115.5h94.6v-3.4c0-19.5-3.4-55.9-45.3-55.9-42 0-48 39.4-49.1 55.9z"/>
</svg>